<?xml version="1.0" ?><!DOCTYPE svg  PUBLIC '-//W3C//DTD SVG 1.1//EN'  'http://www.w3.org/Graphics/SVG/1.1/DTD/svg11.dtd'><svg enable-background="new 0 0 128 128" id="Слой_1" version="1.1" viewBox="0 0 128 128" xml:space="preserve" xmlns="http://www.w3.org/2000/svg" xmlns:xlink="http://www.w3.org/1999/xlink"><g><g><g><circle cx="64" cy="64" fill="#EFEFEF" r="62"/></g><g><g><path d="M82.1,19.2L109,46c0.7,0.7,1.8,0.8,2.5,0.1c1.6-1.4,4.6-4.2,8.8-8C114.2,24.7,103.4,14,90.1,7.8      C86.3,12,83.5,15,82,16.6C81.4,17.4,81.4,18.4,82.1,19.2z" fill="#72B6D3"/></g><g><path d="M110.8,45.4c-0.1,0.1-0.3,0.2-0.5,0.2c-0.2,0-0.5-0.1-0.6-0.3L82.8,18.4c-0.3-0.3-0.4-0.8-0.1-1.2      c1.5-1.6,4.3-4.8,8.3-9.1c-0.6-0.3-1.3-0.6-1.9-0.9c-3.7,4.1-6.4,7.1-7.9,8.6c-1,1.1-1,2.8,0.1,3.9l26.8,26.8      c0.6,0.6,1.3,0.9,2,0.9c0.7,0,1.4-0.3,1.9-0.7l8.6-7.8c-0.3-0.6-0.6-1.3-0.9-1.9L110.8,45.4z" fill="#62355C"/></g><g><path d="M54.9,45c-2.7,2.1-4.7,4.8-5.9,8L34.1,91.3c-0.2,0.5-0.2,1.6,0.3,2l27.1-26.9c-1.7-2.2-2.1-5.8-0.1-7.8      c2.2-2.2,5.7-2.2,7.9,0c2.2,2.2,2.2,5.7,0,7.9c-2,2-5.7,1.5-7.9-0.2L34.4,93.4c0.5,0.5,1.7,0.6,2.1,0.4l37.9-14.2      c3.2-1.2,6.1-3.3,8.2-6l23.7-30.2L84.7,21.8L54.9,45z" fill="#FFF098"/></g><g opacity="0.1"><polygon fill="#0E1115" points="77.3,27.6 100.6,50.8 106.4,43.4 84.7,21.8     "/></g><g><path d="M85.5,21.1c-0.4-0.4-0.9-0.4-1.3-0.1L54.3,44.2c-2.8,2.2-5,5.1-6.3,8.4L33.2,91      c-0.3,0.8-0.3,2.2,0.5,3.1c0.7,0.7,1.8,0.8,2.2,0.8c0.3,0,0.6,0,1-0.1l37.9-14.2c3.4-1.3,6.4-3.5,8.6-6.3L107.1,44      c0.3-0.4,0.3-1-0.1-1.3L85.5,21.1z M81.9,73c-2,2.6-4.7,4.5-7.7,5.7L36.5,92.7l25.2-25c1.3,0.8,2.8,1.2,4.3,1.2      c1.7,0,3.1-0.6,4.2-1.6c2.6-2.6,2.6-6.8,0-9.4c-1.2-1.2-2.9-1.9-4.7-1.9c-1.8,0-3.4,0.7-4.7,1.9c-2.2,2.2-2,5.9-0.5,8.4      l-25,24.8l14.6-37.7c1.2-3,3.1-5.6,5.6-7.6l29.1-22.7L105,43.5L81.9,73z M62.2,59.4c0.9-0.9,2-1.4,3.3-1.4      c1.2,0,2.4,0.5,3.3,1.4c1.8,1.8,1.8,4.7,0,6.5c-0.8,0.8-2,1-2.8,1c-1.3,0-2.6-0.4-3.7-1.2C61,63.9,60.6,61,62.2,59.4z" fill="#62355C"/></g></g></g><g><path d="M85.2,104.3c-0.4,0-0.9-0.1-1.3-0.4c-1-0.7-1.4-1.9-0.8-3l9.3-18.5c0.1-0.2,0.1-0.3-0.1-0.4    c-0.2-0.1-0.3-0.1-0.5,0.1l-6.4,7c-3.5,3.8-8.4,5.9-13.5,5.9h-9.4c-0.6,0-1-0.4-1-1s0.4-1,1-1h9.4c4.6,0,9-1.9,12.1-5.3l6.4-7    c0.8-0.9,2.1-1,3.1-0.3s1.3,1.9,0.8,3l-9.3,18.5c-0.1,0.2-0.1,0.3,0.1,0.5c0.2,0.1,0.3,0.1,0.5-0.1l11.9-14.4c0.8-0.9,2-1.1,3-0.5    c1,0.6,1.4,1.8,1,2.9l-2.1,5.1c-0.1,0.2,0,0.3,0.1,0.4c0.1,0.1,0.3,0.1,0.4,0l2.9-2.4c3.3-2.7,7.5-4.2,11.7-4.2h0.7    c0.6,0,1,0.4,1,1s-0.4,1-1,1h-0.7c-3.8,0-7.5,1.3-10.5,3.8l-2.9,2.4c-0.8,0.7-2,0.7-2.9,0.1c-0.9-0.6-1.2-1.8-0.8-2.8l2.1-5.1    c0.1-0.2,0-0.3-0.1-0.4c-0.2-0.1-0.3-0.1-0.5,0.1L87,103.4C86.5,104,85.9,104.3,85.2,104.3z" fill="#62355C"/></g></g></svg>